<?xml version="1.0" encoding="utf-8"?>
<!DOCTYPE svg
  PUBLIC '-//W3C//DTD SVG 1.0//EN'
  'http://www.w3.org/TR/2001/REC-SVG-20010904/DTD/svg10.dtd'>
<svg width="497.27559055118115" height="395" preserveAspectRatio="xMinYMin meet" viewBox="0 0 497 395" xmlns="http://www.w3.org/2000/svg" version="1.0" fill-rule="evenodd" xmlns:xlink="http://www.w3.org/1999/xlink">
	<title>...</title>
	<desc>...</desc>
	<clipPath id="clip">
		<rect x="0" y="0" width="497.27559055118115" height="395"/>
	</clipPath>
	<g id="group" transform="scale(1,-1) translate(0,-395)" style="clip-path: url(#clip)">
		<g transform="">
			<rect x="45" y="332" width="257" height="44" rx="5" ry="5" style="stroke: rgb(80%,84%,87%); stroke-linecap: butt; stroke-width: 0.6; fill: rgb(94%,95%,96%); fill-rule: evenodd;"/>
			<text x="113.275146484375" y="358.0" style="font-family: Bold; font-size: 9px;fill: rgb(9%,21%,29%); stroke:none;" transform="translate(0,716) scale(1,-1)">Frozen protein features</text>
			<text x="103.82382812499999" y="344.0" style="font-family: Body; font-size: 7.2px;fill: rgb(32%,38%,45%); stroke:none;" transform="translate(0,688) scale(1,-1)">Pooled control / optional residue views</text>
			<rect x="45" y="258" width="257" height="44" rx="5" ry="5" style="stroke: rgb(80%,84%,87%); stroke-linecap: butt; stroke-width: 0.6; fill: rgb(94%,95%,96%); fill-rule: evenodd;"/>
			<text x="113.718994140625" y="284.0" style="font-family: Bold; font-size: 9px;fill: rgb(9%,21%,29%); stroke:none;" transform="translate(0,568) scale(1,-1)">A: shared local encoder</text>
			<text x="115.509765625" y="270.0" style="font-family: Body; font-size: 7.2px;fill: rgb(32%,38%,45%); stroke:none;" transform="translate(0,540) scale(1,-1)">Four local blocks; physical route</text>
			<rect x="45" y="184" width="257" height="44" rx="5" ry="5" style="stroke: rgb(80%,84%,87%); stroke-linecap: butt; stroke-width: 0.6; fill: rgb(94%,95%,96%); fill-rule: evenodd;"/>
			<text x="122.213623046875" y="210.0" style="font-family: Bold; font-size: 9px;fill: rgb(9%,21%,29%); stroke:none;" transform="translate(0,420) scale(1,-1)">C: assembly context</text>
			<text x="107.20234375" y="196.0" style="font-family: Body; font-size: 7.2px;fill: rgb(32%,38%,45%); stroke:none;" transform="translate(0,392) scale(1,-1)">Two exchanges with four latent slots</text>
			<rect x="45" y="110" width="257" height="44" rx="5" ry="5" style="stroke: rgb(80%,84%,87%); stroke-linecap: butt; stroke-width: 0.6; fill: rgb(94%,95%,96%); fill-rule: evenodd;"/>
			<text x="96.41772460937499" y="136.0" style="font-family: Bold; font-size: 9px;fill: rgb(9%,21%,29%); stroke:none;" transform="translate(0,272) scale(1,-1)">Domain and connection states</text>
			<text x="101.75839843749999" y="122.0" style="font-family: Body; font-size: 7.2px;fill: rgb(32%,38%,45%); stroke:none;" transform="translate(0,244) scale(1,-1)">Reusable features before scoring heads</text>
			<rect x="337" y="214" width="148" height="60" rx="5" ry="5" style="stroke: rgb(80%,84%,87%); stroke-linecap: butt; stroke-width: 0.6; fill: rgb(94%,95%,96%); fill-rule: evenodd;"/>
			<text x="354.39404296875" y="248.0" style="font-family: Bold; font-size: 9px;fill: rgb(9%,21%,29%); stroke:none;" transform="translate(0,496) scale(1,-1)">Optional D refinement</text>
			<text x="368.780859375" y="234.0" style="font-family: Body; font-size: 7.2px;fill: rgb(32%,38%,45%); stroke:none;" transform="translate(0,468) scale(1,-1)">Repeat complete A + C</text>
			<rect x="5" y="13" width="223" height="53" rx="5" ry="5" style="stroke: rgb(80%,84%,87%); stroke-linecap: butt; stroke-width: 0.6; fill: rgb(94%,95%,96%); fill-rule: evenodd;"/>
			<text x="53.79882812499999" y="43.5" style="font-family: Bold; font-size: 9px;fill: rgb(9%,21%,29%); stroke:none;" transform="translate(0,87) scale(1,-1)">Natural-support decoder</text>
			<text x="56.059374999999996" y="29.5" style="font-family: Body; font-size: 7.2px;fill: rgb(32%,38%,45%); stroke:none;" transform="translate(0,59) scale(1,-1)">Masked view / natural checkpoint</text>
			<rect x="259" y="13" width="227" height="53" rx="5" ry="5" style="stroke: rgb(80%,84%,87%); stroke-linecap: butt; stroke-width: 0.6; fill: rgb(94%,95%,96%); fill-rule: evenodd;"/>
			<text x="323.727294921875" y="43.5" style="font-family: Bold; font-size: 9px;fill: rgb(9%,21%,29%); stroke:none;" transform="translate(0,87) scale(1,-1)">Downstream heads</text>
			<text x="295.015625" y="29.5" style="font-family: Body; font-size: 7.2px;fill: rgb(32%,38%,45%); stroke:none;" transform="translate(0,59) scale(1,-1)">Activity / quantitative assay / additive map</text>
			<rect x="337" y="105" width="148" height="60" rx="5" ry="5" style="stroke: rgb(80%,84%,87%); stroke-linecap: butt; stroke-width: 0.6; fill: rgb(94%,95%,96%); fill-rule: evenodd;"/>
			<text x="350.120361328125" y="139.0" style="font-family: Bold; font-size: 9px;fill: rgb(9%,21%,29%); stroke:none;" transform="translate(0,278) scale(1,-1)">Optional source context</text>
			<text x="355.959375" y="125.0" style="font-family: Body; font-size: 7.2px;fill: rgb(32%,38%,45%); stroke:none;" transform="translate(0,250) scale(1,-1)">Downstream adapter; planned</text>
			<path d="M 174,332 L 174,302 Z" style="stroke: rgb(3%,49%,54%); stroke-linecap: butt; stroke-width: 1;"/>
			<polygon points="174 302, 171 308, 177 308" style="stroke: rgb(3%,49%,54%); stroke-linecap: butt; stroke-width: 1; fill: rgb(3%,49%,54%); fill-rule: evenodd;"/>
			<path d="M 174,258 L 174,228 Z" style="stroke: rgb(3%,49%,54%); stroke-linecap: butt; stroke-width: 1;"/>
			<polygon points="174 228, 171 234, 177 234" style="stroke: rgb(3%,49%,54%); stroke-linecap: butt; stroke-width: 1; fill: rgb(3%,49%,54%); fill-rule: evenodd;"/>
			<path d="M 174,184 L 174,154 Z" style="stroke: rgb(3%,49%,54%); stroke-linecap: butt; stroke-width: 1;"/>
			<polygon points="174 154, 171 160, 177 160" style="stroke: rgb(3%,49%,54%); stroke-linecap: butt; stroke-width: 1; fill: rgb(3%,49%,54%); fill-rule: evenodd;"/>
			<path d="M 45,280 L 22,280 Z" style="stroke: rgb(32%,38%,45%); stroke-linecap: butt; stroke-width: 1;"/>
			<path d="M 22,280 L 22,132 Z" style="stroke: rgb(32%,38%,45%); stroke-linecap: butt; stroke-width: 1;"/>
			<path d="M 22,132 L 45,132 Z" style="stroke: rgb(32%,38%,45%); stroke-linecap: butt; stroke-width: 1;"/>
			<polygon points="45 132, 39 129, 39 135" style="stroke: rgb(32%,38%,45%); stroke-linecap: butt; stroke-width: 1; fill: rgb(32%,38%,45%); fill-rule: evenodd;"/>
			<path d="M 302,204 L 317,204 Z" style="stroke: rgb(3%,49%,54%); stroke-linecap: butt; stroke-width: 1;"/>
			<path d="M 317,204 L 317,244 Z" style="stroke: rgb(3%,49%,54%); stroke-linecap: butt; stroke-width: 1;"/>
			<path d="M 317,244 L 337,244 Z" style="stroke: rgb(3%,49%,54%); stroke-linecap: butt; stroke-width: 1;"/>
			<polygon points="337 244, 331 241, 331 247" style="stroke: rgb(3%,49%,54%); stroke-linecap: butt; stroke-width: 1; fill: rgb(3%,49%,54%); fill-rule: evenodd;"/>
			<path d="M 411,274 L 411,280 Z" style="stroke: rgb(3%,49%,54%); stroke-linecap: butt; stroke-width: 1;"/>
			<path d="M 411,280 L 302,280 Z" style="stroke: rgb(3%,49%,54%); stroke-linecap: butt; stroke-width: 1;"/>
			<polygon points="302 280, 308 283, 308 277" style="stroke: rgb(3%,49%,54%); stroke-linecap: butt; stroke-width: 1; fill: rgb(3%,49%,54%); fill-rule: evenodd;"/>
			<path d="M 120,110 L 120,66 Z" style="stroke: rgb(3%,49%,54%); stroke-linecap: butt; stroke-width: 1;"/>
			<polygon points="120 66, 117 72, 123 72" style="stroke: rgb(3%,49%,54%); stroke-linecap: butt; stroke-width: 1; fill: rgb(3%,49%,54%); fill-rule: evenodd;"/>
			<path d="M 240,110 L 240,85 Z" style="stroke: rgb(3%,49%,54%); stroke-linecap: butt; stroke-width: 1;"/>
			<path d="M 240,85 L 369,85 Z" style="stroke: rgb(3%,49%,54%); stroke-linecap: butt; stroke-width: 1;"/>
			<path d="M 369,85 L 369,66 Z" style="stroke: rgb(3%,49%,54%); stroke-linecap: butt; stroke-width: 1;"/>
			<polygon points="369 66, 366 72, 372 72" style="stroke: rgb(3%,49%,54%); stroke-linecap: butt; stroke-width: 1; fill: rgb(3%,49%,54%); fill-rule: evenodd;"/>
			<path d="M 411,105 L 411,66 Z" style="stroke: rgb(32%,38%,45%); stroke-linecap: butt; stroke-width: 1;"/>
			<polygon points="411 66, 408 72, 414 72" style="stroke: rgb(32%,38%,45%); stroke-linecap: butt; stroke-width: 1; fill: rgb(32%,38%,45%); fill-rule: evenodd;"/>
		</g>
	</g>
</svg>
